<svg id="visual" viewBox="0 0 900 450" width="900" height="450" xmlns="http://www.w3.org/2000/svg" xmlns:xlink="http://www.w3.org/1999/xlink" version="1.1"><rect x="0" y="0" width="900" height="450" fill="#FFFFFF"></rect><defs><linearGradient id="grad1_0" x1="50%" y1="0%" x2="100%" y2="100%"><stop offset="10%" stop-color="#ffffff" stop-opacity="1"></stop><stop offset="90%" stop-color="#ffffff" stop-opacity="1"></stop></linearGradient></defs><defs><linearGradient id="grad2_0" x1="0%" y1="0%" x2="50%" y2="100%"><stop offset="10%" stop-color="#ffffff" stop-opacity="1"></stop><stop offset="90%" stop-color="#ffffff" stop-opacity="1"></stop></linearGradient></defs><g transform="translate(900, 0)"><path d="M0 333C-47.1 347.1 -94.2 361.1 -147.7 356.6C-201.3 352.1 -261.3 329 -286.4 286.4C-311.4 243.7 -301.4 181.5 -315 130.5C-328.6 79.5 -365.8 39.8 -403 0L0 0Z" fill="#b385f7"></path></g><g transform="translate(0, 450)"><path d="M0 -355C46.3 -358.2 92.7 -361.4 146.6 -353.8C200.5 -346.3 261.9 -327.9 286.4 -286.4C310.9 -244.9 298.5 -180.2 310.4 -128.6C322.4 -77 358.7 -38.5 395 0L0 0Z" fill="#b385f7"></path></g></svg>