<svg id="visual" viewBox="0 0 900 400" width="900" height="400" xmlns="http://www.w3.org/2000/svg" xmlns:xlink="http://www.w3.org/1999/xlink" version="1.1"><rect x="0" y="0" width="900" height="400" fill="#FFFFFF"></rect><defs><linearGradient id="grad1_0" x1="55.6%" y1="0%" x2="100%" y2="100%"><stop offset="5%" stop-color="#ffffff" stop-opacity="1"></stop><stop offset="95%" stop-color="#ffffff" stop-opacity="1"></stop></linearGradient></defs><defs><linearGradient id="grad2_0" x1="0%" y1="0%" x2="44.4%" y2="100%"><stop offset="5%" stop-color="#ffffff" stop-opacity="1"></stop><stop offset="95%" stop-color="#ffffff" stop-opacity="1"></stop></linearGradient></defs><g transform="translate(900, 0)"><path d="M0 360C-36.8 325.3 -73.6 290.7 -112.9 272.5C-152.2 254.4 -194.1 252.7 -234.1 234.1C-274 215.4 -311.9 179.6 -332.6 137.8C-353.3 95.9 -356.6 48 -360 0L0 0Z" fill="#b385f7"></path></g><g transform="translate(0, 400)"><path d="M0 -360C49.2 -358 98.4 -356 137.8 -332.6C177.1 -309.2 206.6 -264.6 224.2 -224.2C241.7 -183.7 247.3 -147.6 267.9 -111C288.6 -74.3 324.3 -37.2 360 0L0 0Z" fill="#b385f7"></path></g></svg>